<mxfile host="Electron" agent="Mozilla/5.0 (X11; Linux x86_64) AppleWebKit/537.36 (KHTML, like Gecko) draw.io/24.7.17 Chrome/128.0.6613.36 Electron/32.0.1 Safari/537.36" version="24.7.17">
  <diagram name="Page-1" id="1mhyd2RmHcJSfzY_riYw">
    <mxGraphModel dx="1114" dy="659" grid="1" gridSize="10" guides="1" tooltips="1" connect="1" arrows="1" fold="1" page="1" pageScale="1" pageWidth="850" pageHeight="1100" math="0" shadow="0">
      <root>
        <mxCell id="0" />
        <mxCell id="1" parent="0" />
        <mxCell id="DNOfdD8zVIgNk7MukMJV-1" value="start" style="ellipse;whiteSpace=wrap;html=1;" vertex="1" parent="1">
          <mxGeometry x="42.5" width="120" height="80" as="geometry" />
        </mxCell>
        <mxCell id="DNOfdD8zVIgNk7MukMJV-3" value="Declare&lt;div&gt;name&lt;/div&gt;&lt;div&gt;clue&lt;/div&gt;&lt;div&gt;playerChoiceRound1&lt;/div&gt;&lt;div&gt;playerChoiceRound2&lt;/div&gt;&lt;div&gt;playerChoiceFinal&lt;/div&gt;&lt;div&gt;runningScore&lt;/div&gt;&lt;div&gt;&lt;span style=&quot;background-color: initial;&quot;&gt;buzzer&lt;/span&gt;&lt;/div&gt;&lt;div&gt;&lt;span style=&quot;background-color: initial;&quot;&gt;time&lt;/span&gt;&lt;br&gt;&lt;/div&gt;&lt;div&gt;counter&lt;/div&gt;&lt;div&gt;playerWager&lt;/div&gt;&lt;div&gt;finalScore&lt;/div&gt;&lt;div&gt;highScore&lt;/div&gt;&lt;div&gt;playerCategoryChoice&lt;br&gt;&lt;/div&gt;" style="rounded=0;whiteSpace=wrap;html=1;" vertex="1" parent="1">
          <mxGeometry x="37.5" y="100" width="120" height="210" as="geometry" />
        </mxCell>
        <mxCell id="DNOfdD8zVIgNk7MukMJV-4" value="" style="endArrow=classic;html=1;rounded=0;entryX=0.5;entryY=0;entryDx=0;entryDy=0;" edge="1" parent="1" source="DNOfdD8zVIgNk7MukMJV-1" target="DNOfdD8zVIgNk7MukMJV-3">
          <mxGeometry width="50" height="50" relative="1" as="geometry">
            <mxPoint x="127.5" y="190" as="sourcePoint" />
            <mxPoint x="177.5" y="140" as="targetPoint" />
          </mxGeometry>
        </mxCell>
        <mxCell id="DNOfdD8zVIgNk7MukMJV-5" value="input Player name" style="shape=parallelogram;perimeter=parallelogramPerimeter;whiteSpace=wrap;html=1;fixedSize=1;" vertex="1" parent="1">
          <mxGeometry x="37.5" y="350" width="120" height="60" as="geometry" />
        </mxCell>
        <mxCell id="DNOfdD8zVIgNk7MukMJV-6" value="firstRoundModule()" style="shape=process;whiteSpace=wrap;html=1;backgroundOutline=1;" vertex="1" parent="1">
          <mxGeometry x="30" y="500" width="132.5" height="60" as="geometry" />
        </mxCell>
        <mxCell id="DNOfdD8zVIgNk7MukMJV-7" value="secoundRoundModule()" style="shape=process;whiteSpace=wrap;html=1;backgroundOutline=1;" vertex="1" parent="1">
          <mxGeometry x="291.25" y="500" width="158.75" height="60" as="geometry" />
        </mxCell>
        <mxCell id="DNOfdD8zVIgNk7MukMJV-8" value="finalRoundModule()" style="shape=process;whiteSpace=wrap;html=1;backgroundOutline=1;" vertex="1" parent="1">
          <mxGeometry x="570" y="500" width="150" height="60" as="geometry" />
        </mxCell>
        <mxCell id="DNOfdD8zVIgNk7MukMJV-9" value="Display Cateories&amp;nbsp;&lt;div&gt;and Dollar&lt;/div&gt;&lt;div&gt;Amounts&lt;/div&gt;&lt;div&gt;($100-$500)&lt;/div&gt;" style="shape=parallelogram;perimeter=parallelogramPerimeter;whiteSpace=wrap;html=1;fixedSize=1;" vertex="1" parent="1">
          <mxGeometry x="45" y="570" width="120" height="60" as="geometry" />
        </mxCell>
        <mxCell id="DNOfdD8zVIgNk7MukMJV-11" value="&lt;div&gt;&lt;br&gt;&lt;/div&gt;If buzzer &amp;gt; 5 seconds then&amp;nbsp;&lt;div&gt;&lt;span style=&quot;white-space: pre;&quot;&gt;&#x9;&lt;/span&gt;Display Time&#39;s up&lt;br&gt;&lt;/div&gt;&lt;div&gt;runningScore=runningScore-dollarAmount&lt;/div&gt;&lt;div&gt;else&lt;/div&gt;&lt;div&gt;&lt;br&gt;&lt;/div&gt;" style="rounded=1;whiteSpace=wrap;html=1;" vertex="1" parent="1">
          <mxGeometry x="291.25" y="80" width="175" height="80" as="geometry" />
        </mxCell>
        <mxCell id="DNOfdD8zVIgNk7MukMJV-12" value="input playerCategoryChoice" style="shape=parallelogram;perimeter=parallelogramPerimeter;whiteSpace=wrap;html=1;fixedSize=1;" vertex="1" parent="1">
          <mxGeometry x="11.25" y="645" width="187.5" height="60" as="geometry" />
        </mxCell>
        <mxCell id="DNOfdD8zVIgNk7MukMJV-13" value="Display the Clue&lt;div&gt;that matches&amp;nbsp;&lt;/div&gt;&lt;div&gt;player&#39;s choice&lt;/div&gt;&lt;div&gt;Display Push Buzzer!&lt;/div&gt;" style="shape=parallelogram;perimeter=parallelogramPerimeter;whiteSpace=wrap;html=1;fixedSize=1;" vertex="1" parent="1">
          <mxGeometry x="22.5" y="715" width="150" height="60" as="geometry" />
        </mxCell>
        <mxCell id="DNOfdD8zVIgNk7MukMJV-14" value="&lt;div style=&quot;forced-color-adjust: none; color: rgb(0, 0, 0); font-family: Helvetica; font-size: 12px; font-style: normal; font-variant-ligatures: normal; font-variant-caps: normal; font-weight: 400; letter-spacing: normal; orphans: 2; text-align: center; text-indent: 0px; text-transform: none; widows: 2; word-spacing: 0px; -webkit-text-stroke-width: 0px; white-space: normal; background-color: rgb(251, 251, 251); text-decoration-thickness: initial; text-decoration-style: initial; text-decoration-color: initial;&quot;&gt;if playerChoiceRound1 = clue then&lt;/div&gt;&lt;div style=&quot;forced-color-adjust: none; color: rgb(0, 0, 0); font-family: Helvetica; font-size: 12px; font-style: normal; font-variant-ligatures: normal; font-variant-caps: normal; font-weight: 400; letter-spacing: normal; orphans: 2; text-align: center; text-indent: 0px; text-transform: none; widows: 2; word-spacing: 0px; -webkit-text-stroke-width: 0px; white-space: normal; background-color: rgb(251, 251, 251); text-decoration-thickness: initial; text-decoration-style: initial; text-decoration-color: initial;&quot;&gt;Display Correct!&lt;/div&gt;&lt;div style=&quot;forced-color-adjust: none; color: rgb(0, 0, 0); font-family: Helvetica; font-size: 12px; font-style: normal; font-variant-ligatures: normal; font-variant-caps: normal; font-weight: 400; letter-spacing: normal; orphans: 2; text-align: center; text-indent: 0px; text-transform: none; widows: 2; word-spacing: 0px; -webkit-text-stroke-width: 0px; white-space: normal; background-color: rgb(251, 251, 251); text-decoration-thickness: initial; text-decoration-style: initial; text-decoration-color: initial;&quot;&gt;runningScore=&lt;/div&gt;&lt;div style=&quot;forced-color-adjust: none; color: rgb(0, 0, 0); font-family: Helvetica; font-size: 12px; font-style: normal; font-variant-ligatures: normal; font-variant-caps: normal; font-weight: 400; letter-spacing: normal; orphans: 2; text-align: center; text-indent: 0px; text-transform: none; widows: 2; word-spacing: 0px; -webkit-text-stroke-width: 0px; white-space: normal; background-color: rgb(251, 251, 251); text-decoration-thickness: initial; text-decoration-style: initial; text-decoration-color: initial;&quot;&gt;runningScore+dollarAmount&lt;/div&gt;&lt;div style=&quot;forced-color-adjust: none; color: rgb(0, 0, 0); font-family: Helvetica; font-size: 12px; font-style: normal; font-variant-ligatures: normal; font-variant-caps: normal; font-weight: 400; letter-spacing: normal; orphans: 2; text-align: center; text-indent: 0px; text-transform: none; widows: 2; word-spacing: 0px; -webkit-text-stroke-width: 0px; white-space: normal; background-color: rgb(251, 251, 251); text-decoration-thickness: initial; text-decoration-style: initial; text-decoration-color: initial;&quot;&gt;else Display Incorrect&lt;/div&gt;&lt;div style=&quot;forced-color-adjust: none; color: rgb(0, 0, 0); font-family: Helvetica; font-size: 12px; font-style: normal; font-variant-ligatures: normal; font-variant-caps: normal; font-weight: 400; letter-spacing: normal; orphans: 2; text-align: center; text-indent: 0px; text-transform: none; widows: 2; word-spacing: 0px; -webkit-text-stroke-width: 0px; white-space: normal; background-color: rgb(251, 251, 251); text-decoration-thickness: initial; text-decoration-style: initial; text-decoration-color: initial;&quot;&gt;runningScore=&lt;/div&gt;&lt;div style=&quot;forced-color-adjust: none; color: rgb(0, 0, 0); font-family: Helvetica; font-size: 12px; font-style: normal; font-variant-ligatures: normal; font-variant-caps: normal; font-weight: 400; letter-spacing: normal; orphans: 2; text-align: center; text-indent: 0px; text-transform: none; widows: 2; word-spacing: 0px; -webkit-text-stroke-width: 0px; white-space: normal; background-color: rgb(251, 251, 251); text-decoration-thickness: initial; text-decoration-style: initial; text-decoration-color: initial;&quot;&gt;runningScore-dollarAmount&lt;/div&gt;" style="rounded=1;whiteSpace=wrap;html=1;" vertex="1" parent="1">
          <mxGeometry x="15" y="1075" width="175" height="120" as="geometry" />
        </mxCell>
        <mxCell id="DNOfdD8zVIgNk7MukMJV-15" value="counter = 9?&lt;div&gt;&lt;br&gt;&lt;/div&gt;" style="rhombus;whiteSpace=wrap;html=1;" vertex="1" parent="1">
          <mxGeometry x="45" y="1210" width="150" height="120" as="geometry" />
        </mxCell>
        <mxCell id="DNOfdD8zVIgNk7MukMJV-17" value="NO" style="text;html=1;align=center;verticalAlign=middle;resizable=0;points=[];autosize=1;strokeColor=none;fillColor=none;" vertex="1" parent="1">
          <mxGeometry x="185" y="1270" width="40" height="30" as="geometry" />
        </mxCell>
        <mxCell id="DNOfdD8zVIgNk7MukMJV-18" value="YES" style="text;html=1;align=center;verticalAlign=middle;whiteSpace=wrap;rounded=0;" vertex="1" parent="1">
          <mxGeometry x="65" y="1320" width="60" height="30" as="geometry" />
        </mxCell>
        <mxCell id="DNOfdD8zVIgNk7MukMJV-21" value="" style="endArrow=classic;html=1;rounded=0;exitX=1;exitY=0.5;exitDx=0;exitDy=0;entryX=1;entryY=0.75;entryDx=0;entryDy=0;" edge="1" parent="1" source="DNOfdD8zVIgNk7MukMJV-15" target="DNOfdD8zVIgNk7MukMJV-9">
          <mxGeometry width="50" height="50" relative="1" as="geometry">
            <mxPoint x="275" y="1155" as="sourcePoint" />
            <mxPoint x="225" y="723" as="targetPoint" />
            <Array as="points">
              <mxPoint x="220" y="1270" />
              <mxPoint x="225" y="885" />
              <mxPoint x="225" y="685" />
              <mxPoint x="225" y="610" />
            </Array>
          </mxGeometry>
        </mxCell>
        <mxCell id="DNOfdD8zVIgNk7MukMJV-22" value="Display Cateories&amp;nbsp;&lt;div&gt;and Dollar&lt;/div&gt;&lt;div&gt;Amounts&lt;/div&gt;&lt;div&gt;($200-$1000)&lt;/div&gt;" style="shape=parallelogram;perimeter=parallelogramPerimeter;whiteSpace=wrap;html=1;fixedSize=1;" vertex="1" parent="1">
          <mxGeometry x="301.25" y="580" width="120" height="60" as="geometry" />
        </mxCell>
        <mxCell id="DNOfdD8zVIgNk7MukMJV-24" value="input playerCategoryChoice" style="shape=parallelogram;perimeter=parallelogramPerimeter;whiteSpace=wrap;html=1;fixedSize=1;" vertex="1" parent="1">
          <mxGeometry x="250" y="655" width="210" height="60" as="geometry" />
        </mxCell>
        <mxCell id="DNOfdD8zVIgNk7MukMJV-25" value="Display the Clue&lt;div&gt;that matches&amp;nbsp;&lt;/div&gt;&lt;div&gt;player&#39;s choice&lt;/div&gt;&lt;div&gt;Display Push Buzzer!&lt;/div&gt;" style="shape=parallelogram;perimeter=parallelogramPerimeter;whiteSpace=wrap;html=1;fixedSize=1;" vertex="1" parent="1">
          <mxGeometry x="281.25" y="725" width="150" height="60" as="geometry" />
        </mxCell>
        <mxCell id="DNOfdD8zVIgNk7MukMJV-26" value="&lt;div style=&quot;forced-color-adjust: none; color: rgb(0, 0, 0); font-family: Helvetica; font-size: 12px; font-style: normal; font-variant-ligatures: normal; font-variant-caps: normal; font-weight: 400; letter-spacing: normal; orphans: 2; text-align: center; text-indent: 0px; text-transform: none; widows: 2; word-spacing: 0px; -webkit-text-stroke-width: 0px; white-space: normal; background-color: rgb(251, 251, 251); text-decoration-thickness: initial; text-decoration-style: initial; text-decoration-color: initial;&quot;&gt;if playerChoiceRound2 = clue then&lt;/div&gt;&lt;div style=&quot;forced-color-adjust: none; color: rgb(0, 0, 0); font-family: Helvetica; font-size: 12px; font-style: normal; font-variant-ligatures: normal; font-variant-caps: normal; font-weight: 400; letter-spacing: normal; orphans: 2; text-align: center; text-indent: 0px; text-transform: none; widows: 2; word-spacing: 0px; -webkit-text-stroke-width: 0px; white-space: normal; background-color: rgb(251, 251, 251); text-decoration-thickness: initial; text-decoration-style: initial; text-decoration-color: initial;&quot;&gt;Display Correct!&lt;/div&gt;&lt;div style=&quot;forced-color-adjust: none; color: rgb(0, 0, 0); font-family: Helvetica; font-size: 12px; font-style: normal; font-variant-ligatures: normal; font-variant-caps: normal; font-weight: 400; letter-spacing: normal; orphans: 2; text-align: center; text-indent: 0px; text-transform: none; widows: 2; word-spacing: 0px; -webkit-text-stroke-width: 0px; white-space: normal; background-color: rgb(251, 251, 251); text-decoration-thickness: initial; text-decoration-style: initial; text-decoration-color: initial;&quot;&gt;runningScore=&lt;/div&gt;&lt;div style=&quot;forced-color-adjust: none; color: rgb(0, 0, 0); font-family: Helvetica; font-size: 12px; font-style: normal; font-variant-ligatures: normal; font-variant-caps: normal; font-weight: 400; letter-spacing: normal; orphans: 2; text-align: center; text-indent: 0px; text-transform: none; widows: 2; word-spacing: 0px; -webkit-text-stroke-width: 0px; white-space: normal; background-color: rgb(251, 251, 251); text-decoration-thickness: initial; text-decoration-style: initial; text-decoration-color: initial;&quot;&gt;runningScore+dollarAmount&lt;/div&gt;&lt;div style=&quot;forced-color-adjust: none; color: rgb(0, 0, 0); font-family: Helvetica; font-size: 12px; font-style: normal; font-variant-ligatures: normal; font-variant-caps: normal; font-weight: 400; letter-spacing: normal; orphans: 2; text-align: center; text-indent: 0px; text-transform: none; widows: 2; word-spacing: 0px; -webkit-text-stroke-width: 0px; white-space: normal; background-color: rgb(251, 251, 251); text-decoration-thickness: initial; text-decoration-style: initial; text-decoration-color: initial;&quot;&gt;else Display Incorrect&lt;/div&gt;&lt;div style=&quot;forced-color-adjust: none; color: rgb(0, 0, 0); font-family: Helvetica; font-size: 12px; font-style: normal; font-variant-ligatures: normal; font-variant-caps: normal; font-weight: 400; letter-spacing: normal; orphans: 2; text-align: center; text-indent: 0px; text-transform: none; widows: 2; word-spacing: 0px; -webkit-text-stroke-width: 0px; white-space: normal; background-color: rgb(251, 251, 251); text-decoration-thickness: initial; text-decoration-style: initial; text-decoration-color: initial;&quot;&gt;runningScore=&lt;/div&gt;&lt;div style=&quot;forced-color-adjust: none; color: rgb(0, 0, 0); font-family: Helvetica; font-size: 12px; font-style: normal; font-variant-ligatures: normal; font-variant-caps: normal; font-weight: 400; letter-spacing: normal; orphans: 2; text-align: center; text-indent: 0px; text-transform: none; widows: 2; word-spacing: 0px; -webkit-text-stroke-width: 0px; white-space: normal; background-color: rgb(251, 251, 251); text-decoration-thickness: initial; text-decoration-style: initial; text-decoration-color: initial;&quot;&gt;runningScore-dollarAmount&lt;/div&gt;" style="rounded=1;whiteSpace=wrap;html=1;" vertex="1" parent="1">
          <mxGeometry x="273.75" y="1080" width="175" height="120" as="geometry" />
        </mxCell>
        <mxCell id="DNOfdD8zVIgNk7MukMJV-27" value="counter = 9?&lt;div&gt;&lt;br&gt;&lt;/div&gt;" style="rhombus;whiteSpace=wrap;html=1;" vertex="1" parent="1">
          <mxGeometry x="301.25" y="1210" width="150" height="120" as="geometry" />
        </mxCell>
        <mxCell id="DNOfdD8zVIgNk7MukMJV-28" value="NO" style="text;html=1;align=center;verticalAlign=middle;resizable=0;points=[];autosize=1;strokeColor=none;fillColor=none;" vertex="1" parent="1">
          <mxGeometry x="441.25" y="1280" width="40" height="30" as="geometry" />
        </mxCell>
        <mxCell id="DNOfdD8zVIgNk7MukMJV-29" value="YES" style="text;html=1;align=center;verticalAlign=middle;whiteSpace=wrap;rounded=0;" vertex="1" parent="1">
          <mxGeometry x="286.25" y="1330" width="60" height="30" as="geometry" />
        </mxCell>
        <mxCell id="DNOfdD8zVIgNk7MukMJV-30" value="" style="endArrow=classic;html=1;rounded=0;exitX=1;exitY=0.5;exitDx=0;exitDy=0;entryX=1;entryY=0.75;entryDx=0;entryDy=0;" edge="1" parent="1" source="DNOfdD8zVIgNk7MukMJV-27" target="DNOfdD8zVIgNk7MukMJV-22">
          <mxGeometry width="50" height="50" relative="1" as="geometry">
            <mxPoint x="541.25" y="1090" as="sourcePoint" />
            <mxPoint x="491.25" y="658" as="targetPoint" />
            <Array as="points">
              <mxPoint x="480" y="1270" />
              <mxPoint x="491.25" y="820" />
              <mxPoint x="491.25" y="620" />
            </Array>
          </mxGeometry>
        </mxCell>
        <mxCell id="DNOfdD8zVIgNk7MukMJV-33" value="Display Welcome&lt;div&gt;to Final Jeopardy&lt;/div&gt;" style="shape=parallelogram;perimeter=parallelogramPerimeter;whiteSpace=wrap;html=1;fixedSize=1;" vertex="1" parent="1">
          <mxGeometry x="580" y="570" width="120" height="60" as="geometry" />
        </mxCell>
        <mxCell id="DNOfdD8zVIgNk7MukMJV-34" value="if runningScore &amp;lt; $1 then&lt;div&gt;&lt;span style=&quot;white-space: pre;&quot;&gt;&#x9;&lt;/span&gt;Display You have no money to wager&lt;br&gt;&lt;/div&gt;&lt;div&gt;runningScore = finalScore&lt;/div&gt;&lt;div&gt;endOfGame()&lt;/div&gt;&lt;div&gt;else&amp;nbsp;&lt;/div&gt;" style="rounded=1;whiteSpace=wrap;html=1;" vertex="1" parent="1">
          <mxGeometry x="540" y="645" width="210" height="85" as="geometry" />
        </mxCell>
        <mxCell id="DNOfdD8zVIgNk7MukMJV-36" value="Display What do you wager?" style="shape=parallelogram;perimeter=parallelogramPerimeter;whiteSpace=wrap;html=1;fixedSize=1;" vertex="1" parent="1">
          <mxGeometry x="540" y="750" width="220" height="60" as="geometry" />
        </mxCell>
        <mxCell id="DNOfdD8zVIgNk7MukMJV-37" value="input playerWager" style="shape=parallelogram;perimeter=parallelogramPerimeter;whiteSpace=wrap;html=1;fixedSize=1;" vertex="1" parent="1">
          <mxGeometry x="530" y="835" width="230" height="60" as="geometry" />
        </mxCell>
        <mxCell id="DNOfdD8zVIgNk7MukMJV-38" value="Display Final Clue" style="shape=parallelogram;perimeter=parallelogramPerimeter;whiteSpace=wrap;html=1;fixedSize=1;" vertex="1" parent="1">
          <mxGeometry x="530" y="920" width="220" height="60" as="geometry" />
        </mxCell>
        <mxCell id="DNOfdD8zVIgNk7MukMJV-39" value="If timer &amp;gt; 30 seconds then&amp;nbsp;&lt;div&gt;&lt;span style=&quot;white-space: pre;&quot;&gt;&#x9;&lt;/span&gt;Display Time&#39;s up&lt;br&gt;&lt;/div&gt;&lt;div&gt;finalScore=runningScore-playerWager&lt;/div&gt;&lt;div&gt;else&lt;/div&gt;&lt;div&gt;&lt;br&gt;&lt;/div&gt;" style="rounded=1;whiteSpace=wrap;html=1;" vertex="1" parent="1">
          <mxGeometry x="550" y="1240" width="200" height="80" as="geometry" />
        </mxCell>
        <mxCell id="DNOfdD8zVIgNk7MukMJV-41" value="If timer &amp;gt; 5 seconds then&amp;nbsp;&lt;div&gt;&lt;span style=&quot;white-space: pre;&quot;&gt;&#x9;&lt;/span&gt;Display Time&#39;s up&lt;br&gt;&lt;/div&gt;&lt;div&gt;runningScore=runningScore-dollarAmount&lt;/div&gt;&lt;div&gt;&lt;br&gt;&lt;/div&gt;" style="rounded=1;whiteSpace=wrap;html=1;" vertex="1" parent="1">
          <mxGeometry x="575" y="80" width="175" height="80" as="geometry" />
        </mxCell>
        <mxCell id="DNOfdD8zVIgNk7MukMJV-42" value="input playerChoiceRound1" style="shape=parallelogram;perimeter=parallelogramPerimeter;whiteSpace=wrap;html=1;fixedSize=1;" vertex="1" parent="1">
          <mxGeometry x="5" y="900" width="195" height="60" as="geometry" />
        </mxCell>
        <mxCell id="DNOfdD8zVIgNk7MukMJV-46" value="input playerChoiceRound2" style="shape=parallelogram;perimeter=parallelogramPerimeter;whiteSpace=wrap;html=1;fixedSize=1;" vertex="1" parent="1">
          <mxGeometry x="248.75" y="900" width="195" height="60" as="geometry" />
        </mxCell>
        <mxCell id="DNOfdD8zVIgNk7MukMJV-47" value="input playerFinalResponse" style="rounded=1;whiteSpace=wrap;html=1;" vertex="1" parent="1">
          <mxGeometry x="530" y="1000" width="230" height="60" as="geometry" />
        </mxCell>
        <mxCell id="DNOfdD8zVIgNk7MukMJV-52" value="if finalClue &amp;lt;&amp;gt; playerFinalResponse then&lt;div&gt;&lt;span style=&quot;white-space: pre;&quot;&gt;&#x9;&lt;/span&gt;finalScore=runningScore-playerWager&lt;br&gt;&lt;/div&gt;&lt;div&gt;Display Incorrect...&lt;/div&gt;&lt;div&gt;else&lt;/div&gt;&lt;div&gt;finalScore=runningScore+playerWager&lt;/div&gt;&lt;div&gt;Display That is correct!&lt;/div&gt;" style="rounded=1;whiteSpace=wrap;html=1;" vertex="1" parent="1">
          <mxGeometry x="540" y="1340" width="240" height="120" as="geometry" />
        </mxCell>
        <mxCell id="DNOfdD8zVIgNk7MukMJV-53" value="Is timer &amp;gt; 30 seconds" style="rhombus;whiteSpace=wrap;html=1;" vertex="1" parent="1">
          <mxGeometry x="530" y="1077.5" width="225" height="135" as="geometry" />
        </mxCell>
        <mxCell id="DNOfdD8zVIgNk7MukMJV-55" value="" style="endArrow=classic;html=1;rounded=0;exitX=1;exitY=0.5;exitDx=0;exitDy=0;entryX=1;entryY=0.5;entryDx=0;entryDy=0;" edge="1" parent="1" source="DNOfdD8zVIgNk7MukMJV-53" target="DNOfdD8zVIgNk7MukMJV-47">
          <mxGeometry width="50" height="50" relative="1" as="geometry">
            <mxPoint x="750" y="1200" as="sourcePoint" />
            <mxPoint x="800" y="1150" as="targetPoint" />
            <Array as="points">
              <mxPoint x="800" y="1145" />
              <mxPoint x="800" y="1030" />
            </Array>
          </mxGeometry>
        </mxCell>
        <mxCell id="DNOfdD8zVIgNk7MukMJV-56" value="endOfGame()" style="shape=process;whiteSpace=wrap;html=1;backgroundOutline=1;" vertex="1" parent="1">
          <mxGeometry x="595" y="1520" width="120" height="60" as="geometry" />
        </mxCell>
        <mxCell id="DNOfdD8zVIgNk7MukMJV-58" value="Display finalScore" style="shape=parallelogram;perimeter=parallelogramPerimeter;whiteSpace=wrap;html=1;fixedSize=1;" vertex="1" parent="1">
          <mxGeometry x="555" y="1600" width="195" height="60" as="geometry" />
        </mxCell>
        <mxCell id="DNOfdD8zVIgNk7MukMJV-59" value="if finalScore &amp;lt; highScore then&lt;div&gt;Display Thank you for playing&lt;/div&gt;&lt;div&gt;else&lt;/div&gt;&lt;div&gt;if finalScore &amp;gt; highScore then&lt;/div&gt;&lt;div&gt;highScore = name and finalScore&lt;/div&gt;" style="rounded=1;whiteSpace=wrap;html=1;" vertex="1" parent="1">
          <mxGeometry x="555" y="1680" width="195" height="120" as="geometry" />
        </mxCell>
        <mxCell id="DNOfdD8zVIgNk7MukMJV-60" value="call secondRoundModule" style="rounded=1;whiteSpace=wrap;html=1;" vertex="1" parent="1">
          <mxGeometry x="48" y="1370" width="147" height="60" as="geometry" />
        </mxCell>
        <mxCell id="DNOfdD8zVIgNk7MukMJV-61" value="call finalRoundModule" style="rounded=1;whiteSpace=wrap;html=1;" vertex="1" parent="1">
          <mxGeometry x="310" y="1360" width="147" height="60" as="geometry" />
        </mxCell>
        <mxCell id="DNOfdD8zVIgNk7MukMJV-65" value="YES" style="text;html=1;align=center;verticalAlign=middle;whiteSpace=wrap;rounded=0;" vertex="1" parent="1">
          <mxGeometry x="570" y="1210" width="60" height="30" as="geometry" />
        </mxCell>
        <mxCell id="DNOfdD8zVIgNk7MukMJV-66" value="NO" style="text;html=1;align=center;verticalAlign=middle;whiteSpace=wrap;rounded=0;" vertex="1" parent="1">
          <mxGeometry x="750" y="1150" width="60" height="30" as="geometry" />
        </mxCell>
        <mxCell id="DNOfdD8zVIgNk7MukMJV-67" value="" style="endArrow=classic;html=1;rounded=0;exitX=0.5;exitY=1;exitDx=0;exitDy=0;entryX=0.5;entryY=0;entryDx=0;entryDy=0;" edge="1" parent="1" source="DNOfdD8zVIgNk7MukMJV-3" target="DNOfdD8zVIgNk7MukMJV-5">
          <mxGeometry width="50" height="50" relative="1" as="geometry">
            <mxPoint x="107.5" y="270" as="sourcePoint" />
            <mxPoint x="157.5" y="220" as="targetPoint" />
          </mxGeometry>
        </mxCell>
        <mxCell id="DNOfdD8zVIgNk7MukMJV-68" value="" style="endArrow=classic;html=1;rounded=0;exitX=0.5;exitY=1;exitDx=0;exitDy=0;entryX=0.5;entryY=0;entryDx=0;entryDy=0;" edge="1" parent="1" source="DNOfdD8zVIgNk7MukMJV-5" target="DNOfdD8zVIgNk7MukMJV-6">
          <mxGeometry width="50" height="50" relative="1" as="geometry">
            <mxPoint x="380" y="280" as="sourcePoint" />
            <mxPoint x="430" y="230" as="targetPoint" />
          </mxGeometry>
        </mxCell>
        <mxCell id="DNOfdD8zVIgNk7MukMJV-69" value="" style="endArrow=classic;html=1;rounded=0;exitX=1;exitY=0.5;exitDx=0;exitDy=0;" edge="1" parent="1" source="DNOfdD8zVIgNk7MukMJV-6">
          <mxGeometry width="50" height="50" relative="1" as="geometry">
            <mxPoint x="380" y="520" as="sourcePoint" />
            <mxPoint x="290" y="530" as="targetPoint" />
          </mxGeometry>
        </mxCell>
        <mxCell id="DNOfdD8zVIgNk7MukMJV-70" value="" style="endArrow=classic;html=1;rounded=0;exitX=1;exitY=0.5;exitDx=0;exitDy=0;entryX=0;entryY=0.5;entryDx=0;entryDy=0;" edge="1" parent="1" source="DNOfdD8zVIgNk7MukMJV-7" target="DNOfdD8zVIgNk7MukMJV-8">
          <mxGeometry width="50" height="50" relative="1" as="geometry">
            <mxPoint x="380" y="520" as="sourcePoint" />
            <mxPoint x="430" y="470" as="targetPoint" />
          </mxGeometry>
        </mxCell>
        <mxCell id="DNOfdD8zVIgNk7MukMJV-72" value="" style="endArrow=classic;html=1;rounded=0;exitX=1;exitY=0.5;exitDx=0;exitDy=0;entryX=1;entryY=0.5;entryDx=0;entryDy=0;" edge="1" parent="1" source="DNOfdD8zVIgNk7MukMJV-8" target="DNOfdD8zVIgNk7MukMJV-56">
          <mxGeometry width="50" height="50" relative="1" as="geometry">
            <mxPoint x="760" y="520" as="sourcePoint" />
            <mxPoint x="765" y="1540" as="targetPoint" />
            <Array as="points">
              <mxPoint x="840" y="530" />
              <mxPoint x="830" y="1550" />
            </Array>
          </mxGeometry>
        </mxCell>
        <mxCell id="DNOfdD8zVIgNk7MukMJV-73" value="buzzerModule()" style="shape=process;whiteSpace=wrap;html=1;backgroundOutline=1;" vertex="1" parent="1">
          <mxGeometry x="295" y="10" width="165" height="60" as="geometry" />
        </mxCell>
        <mxCell id="DNOfdD8zVIgNk7MukMJV-74" value="buzzerModule()" style="shape=process;whiteSpace=wrap;html=1;backgroundOutline=1;" vertex="1" parent="1">
          <mxGeometry x="20" y="810" width="165" height="60" as="geometry" />
        </mxCell>
        <mxCell id="DNOfdD8zVIgNk7MukMJV-75" value="buzzerModule()" style="shape=process;whiteSpace=wrap;html=1;backgroundOutline=1;" vertex="1" parent="1">
          <mxGeometry x="273.75" y="810" width="165" height="60" as="geometry" />
        </mxCell>
        <mxCell id="DNOfdD8zVIgNk7MukMJV-76" value="answerTimerModule()" style="shape=process;whiteSpace=wrap;html=1;backgroundOutline=1;" vertex="1" parent="1">
          <mxGeometry x="575" y="10" width="170" height="60" as="geometry" />
        </mxCell>
        <mxCell id="DNOfdD8zVIgNk7MukMJV-77" value="answerTimerModule()" style="shape=process;whiteSpace=wrap;html=1;backgroundOutline=1;" vertex="1" parent="1">
          <mxGeometry x="20" y="980" width="170" height="60" as="geometry" />
        </mxCell>
        <mxCell id="DNOfdD8zVIgNk7MukMJV-78" value="answerTimerModule()" style="shape=process;whiteSpace=wrap;html=1;backgroundOutline=1;" vertex="1" parent="1">
          <mxGeometry x="268.75" y="980" width="170" height="60" as="geometry" />
        </mxCell>
        <mxCell id="DNOfdD8zVIgNk7MukMJV-80" value="" style="endArrow=classic;html=1;rounded=0;exitX=0.5;exitY=1;exitDx=0;exitDy=0;" edge="1" parent="1" source="DNOfdD8zVIgNk7MukMJV-9">
          <mxGeometry width="50" height="50" relative="1" as="geometry">
            <mxPoint x="380" y="670" as="sourcePoint" />
            <mxPoint x="105" y="640" as="targetPoint" />
          </mxGeometry>
        </mxCell>
        <mxCell id="DNOfdD8zVIgNk7MukMJV-81" value="" style="endArrow=classic;html=1;rounded=0;exitX=0.5;exitY=1;exitDx=0;exitDy=0;entryX=0.55;entryY=0.05;entryDx=0;entryDy=0;entryPerimeter=0;" edge="1" parent="1" source="DNOfdD8zVIgNk7MukMJV-12" target="DNOfdD8zVIgNk7MukMJV-13">
          <mxGeometry width="50" height="50" relative="1" as="geometry">
            <mxPoint x="380" y="790" as="sourcePoint" />
            <mxPoint x="430" y="740" as="targetPoint" />
          </mxGeometry>
        </mxCell>
        <mxCell id="DNOfdD8zVIgNk7MukMJV-82" value="" style="endArrow=classic;html=1;rounded=0;exitX=0.5;exitY=1;exitDx=0;exitDy=0;entryX=0.455;entryY=0.033;entryDx=0;entryDy=0;entryPerimeter=0;" edge="1" parent="1" source="DNOfdD8zVIgNk7MukMJV-13" target="DNOfdD8zVIgNk7MukMJV-74">
          <mxGeometry width="50" height="50" relative="1" as="geometry">
            <mxPoint x="380" y="910" as="sourcePoint" />
            <mxPoint x="430" y="860" as="targetPoint" />
          </mxGeometry>
        </mxCell>
        <mxCell id="DNOfdD8zVIgNk7MukMJV-83" value="" style="endArrow=classic;html=1;rounded=0;exitX=0.5;exitY=1;exitDx=0;exitDy=0;entryX=0.5;entryY=0;entryDx=0;entryDy=0;" edge="1" parent="1" source="DNOfdD8zVIgNk7MukMJV-74" target="DNOfdD8zVIgNk7MukMJV-42">
          <mxGeometry width="50" height="50" relative="1" as="geometry">
            <mxPoint x="380" y="1030" as="sourcePoint" />
            <mxPoint x="430" y="980" as="targetPoint" />
          </mxGeometry>
        </mxCell>
        <mxCell id="DNOfdD8zVIgNk7MukMJV-84" value="" style="endArrow=classic;html=1;rounded=0;exitX=0.5;exitY=1;exitDx=0;exitDy=0;entryX=0.459;entryY=0;entryDx=0;entryDy=0;entryPerimeter=0;" edge="1" parent="1" source="DNOfdD8zVIgNk7MukMJV-42" target="DNOfdD8zVIgNk7MukMJV-77">
          <mxGeometry width="50" height="50" relative="1" as="geometry">
            <mxPoint x="380" y="1030" as="sourcePoint" />
            <mxPoint x="430" y="980" as="targetPoint" />
          </mxGeometry>
        </mxCell>
        <mxCell id="DNOfdD8zVIgNk7MukMJV-85" value="" style="endArrow=classic;html=1;rounded=0;exitX=0.453;exitY=1.017;exitDx=0;exitDy=0;exitPerimeter=0;" edge="1" parent="1" source="DNOfdD8zVIgNk7MukMJV-77">
          <mxGeometry width="50" height="50" relative="1" as="geometry">
            <mxPoint x="380" y="1150" as="sourcePoint" />
            <mxPoint x="100" y="1070" as="targetPoint" />
          </mxGeometry>
        </mxCell>
        <mxCell id="DNOfdD8zVIgNk7MukMJV-86" value="" style="endArrow=classic;html=1;rounded=0;exitX=0.5;exitY=1;exitDx=0;exitDy=0;entryX=0.5;entryY=0;entryDx=0;entryDy=0;" edge="1" parent="1" source="DNOfdD8zVIgNk7MukMJV-14" target="DNOfdD8zVIgNk7MukMJV-15">
          <mxGeometry width="50" height="50" relative="1" as="geometry">
            <mxPoint x="380" y="1270" as="sourcePoint" />
            <mxPoint x="430" y="1220" as="targetPoint" />
          </mxGeometry>
        </mxCell>
        <mxCell id="DNOfdD8zVIgNk7MukMJV-87" value="" style="endArrow=classic;html=1;rounded=0;exitX=0.5;exitY=1;exitDx=0;exitDy=0;entryX=0.5;entryY=0;entryDx=0;entryDy=0;" edge="1" parent="1" source="DNOfdD8zVIgNk7MukMJV-15" target="DNOfdD8zVIgNk7MukMJV-60">
          <mxGeometry width="50" height="50" relative="1" as="geometry">
            <mxPoint x="380" y="1270" as="sourcePoint" />
            <mxPoint x="430" y="1220" as="targetPoint" />
          </mxGeometry>
        </mxCell>
        <mxCell id="DNOfdD8zVIgNk7MukMJV-88" value="" style="endArrow=classic;html=1;rounded=0;exitX=0.5;exitY=1;exitDx=0;exitDy=0;entryX=0.533;entryY=0.083;entryDx=0;entryDy=0;entryPerimeter=0;" edge="1" parent="1" source="DNOfdD8zVIgNk7MukMJV-22" target="DNOfdD8zVIgNk7MukMJV-24">
          <mxGeometry width="50" height="50" relative="1" as="geometry">
            <mxPoint x="380" y="790" as="sourcePoint" />
            <mxPoint x="430" y="740" as="targetPoint" />
          </mxGeometry>
        </mxCell>
        <mxCell id="DNOfdD8zVIgNk7MukMJV-89" value="" style="endArrow=classic;html=1;rounded=0;exitX=0.5;exitY=1;exitDx=0;exitDy=0;entryX=0.5;entryY=0;entryDx=0;entryDy=0;" edge="1" parent="1" source="DNOfdD8zVIgNk7MukMJV-24" target="DNOfdD8zVIgNk7MukMJV-25">
          <mxGeometry width="50" height="50" relative="1" as="geometry">
            <mxPoint x="380" y="790" as="sourcePoint" />
            <mxPoint x="430" y="740" as="targetPoint" />
          </mxGeometry>
        </mxCell>
        <mxCell id="DNOfdD8zVIgNk7MukMJV-90" value="" style="endArrow=classic;html=1;rounded=0;exitX=0.5;exitY=1;exitDx=0;exitDy=0;entryX=0.5;entryY=0;entryDx=0;entryDy=0;" edge="1" parent="1" source="DNOfdD8zVIgNk7MukMJV-25" target="DNOfdD8zVIgNk7MukMJV-75">
          <mxGeometry width="50" height="50" relative="1" as="geometry">
            <mxPoint x="380" y="1030" as="sourcePoint" />
            <mxPoint x="430" y="980" as="targetPoint" />
          </mxGeometry>
        </mxCell>
        <mxCell id="DNOfdD8zVIgNk7MukMJV-91" value="" style="endArrow=classic;html=1;rounded=0;exitX=0.5;exitY=1;exitDx=0;exitDy=0;entryX=0.555;entryY=0.05;entryDx=0;entryDy=0;entryPerimeter=0;" edge="1" parent="1" source="DNOfdD8zVIgNk7MukMJV-75" target="DNOfdD8zVIgNk7MukMJV-46">
          <mxGeometry width="50" height="50" relative="1" as="geometry">
            <mxPoint x="380" y="1030" as="sourcePoint" />
            <mxPoint x="430" y="980" as="targetPoint" />
          </mxGeometry>
        </mxCell>
        <mxCell id="DNOfdD8zVIgNk7MukMJV-92" value="" style="endArrow=classic;html=1;rounded=0;exitX=0.535;exitY=0.967;exitDx=0;exitDy=0;exitPerimeter=0;entryX=0.5;entryY=0;entryDx=0;entryDy=0;" edge="1" parent="1" source="DNOfdD8zVIgNk7MukMJV-46" target="DNOfdD8zVIgNk7MukMJV-78">
          <mxGeometry width="50" height="50" relative="1" as="geometry">
            <mxPoint x="380" y="1030" as="sourcePoint" />
            <mxPoint x="430" y="980" as="targetPoint" />
          </mxGeometry>
        </mxCell>
        <mxCell id="DNOfdD8zVIgNk7MukMJV-93" value="" style="endArrow=classic;html=1;rounded=0;exitX=0.5;exitY=1;exitDx=0;exitDy=0;entryX=0.5;entryY=0;entryDx=0;entryDy=0;" edge="1" parent="1" source="DNOfdD8zVIgNk7MukMJV-78" target="DNOfdD8zVIgNk7MukMJV-26">
          <mxGeometry width="50" height="50" relative="1" as="geometry">
            <mxPoint x="380" y="1150" as="sourcePoint" />
            <mxPoint x="430" y="1100" as="targetPoint" />
          </mxGeometry>
        </mxCell>
        <mxCell id="DNOfdD8zVIgNk7MukMJV-94" value="" style="endArrow=classic;html=1;rounded=0;exitX=0.579;exitY=1.008;exitDx=0;exitDy=0;exitPerimeter=0;entryX=0.5;entryY=0;entryDx=0;entryDy=0;" edge="1" parent="1" source="DNOfdD8zVIgNk7MukMJV-26" target="DNOfdD8zVIgNk7MukMJV-27">
          <mxGeometry width="50" height="50" relative="1" as="geometry">
            <mxPoint x="380" y="1390" as="sourcePoint" />
            <mxPoint x="430" y="1340" as="targetPoint" />
          </mxGeometry>
        </mxCell>
        <mxCell id="DNOfdD8zVIgNk7MukMJV-95" value="" style="endArrow=classic;html=1;rounded=0;exitX=0.5;exitY=1;exitDx=0;exitDy=0;entryX=0.456;entryY=-0.017;entryDx=0;entryDy=0;entryPerimeter=0;" edge="1" parent="1" source="DNOfdD8zVIgNk7MukMJV-27" target="DNOfdD8zVIgNk7MukMJV-61">
          <mxGeometry width="50" height="50" relative="1" as="geometry">
            <mxPoint x="380" y="1390" as="sourcePoint" />
            <mxPoint x="430" y="1340" as="targetPoint" />
          </mxGeometry>
        </mxCell>
        <mxCell id="DNOfdD8zVIgNk7MukMJV-96" value="" style="endArrow=classic;html=1;rounded=0;exitX=0.5;exitY=1;exitDx=0;exitDy=0;entryX=0.5;entryY=0;entryDx=0;entryDy=0;" edge="1" parent="1" source="DNOfdD8zVIgNk7MukMJV-33" target="DNOfdD8zVIgNk7MukMJV-34">
          <mxGeometry width="50" height="50" relative="1" as="geometry">
            <mxPoint x="380" y="670" as="sourcePoint" />
            <mxPoint x="430" y="620" as="targetPoint" />
          </mxGeometry>
        </mxCell>
        <mxCell id="DNOfdD8zVIgNk7MukMJV-97" value="" style="endArrow=classic;html=1;rounded=0;exitX=0.5;exitY=1;exitDx=0;exitDy=0;entryX=0.5;entryY=0;entryDx=0;entryDy=0;" edge="1" parent="1" source="DNOfdD8zVIgNk7MukMJV-34" target="DNOfdD8zVIgNk7MukMJV-36">
          <mxGeometry width="50" height="50" relative="1" as="geometry">
            <mxPoint x="380" y="910" as="sourcePoint" />
            <mxPoint x="430" y="860" as="targetPoint" />
          </mxGeometry>
        </mxCell>
        <mxCell id="DNOfdD8zVIgNk7MukMJV-98" value="" style="endArrow=classic;html=1;rounded=0;exitX=0.5;exitY=1;exitDx=0;exitDy=0;entryX=0.5;entryY=0;entryDx=0;entryDy=0;" edge="1" parent="1" source="DNOfdD8zVIgNk7MukMJV-36" target="DNOfdD8zVIgNk7MukMJV-37">
          <mxGeometry width="50" height="50" relative="1" as="geometry">
            <mxPoint x="380" y="910" as="sourcePoint" />
            <mxPoint x="430" y="860" as="targetPoint" />
          </mxGeometry>
        </mxCell>
        <mxCell id="DNOfdD8zVIgNk7MukMJV-99" value="" style="endArrow=classic;html=1;rounded=0;exitX=0.5;exitY=1;exitDx=0;exitDy=0;entryX=0.5;entryY=0;entryDx=0;entryDy=0;" edge="1" parent="1" source="DNOfdD8zVIgNk7MukMJV-37" target="DNOfdD8zVIgNk7MukMJV-38">
          <mxGeometry width="50" height="50" relative="1" as="geometry">
            <mxPoint x="380" y="1030" as="sourcePoint" />
            <mxPoint x="430" y="980" as="targetPoint" />
          </mxGeometry>
        </mxCell>
        <mxCell id="DNOfdD8zVIgNk7MukMJV-100" value="" style="endArrow=classic;html=1;rounded=0;exitX=0.5;exitY=1;exitDx=0;exitDy=0;" edge="1" parent="1" source="DNOfdD8zVIgNk7MukMJV-38" target="DNOfdD8zVIgNk7MukMJV-47">
          <mxGeometry width="50" height="50" relative="1" as="geometry">
            <mxPoint x="380" y="1030" as="sourcePoint" />
            <mxPoint x="430" y="980" as="targetPoint" />
          </mxGeometry>
        </mxCell>
        <mxCell id="DNOfdD8zVIgNk7MukMJV-101" value="" style="endArrow=classic;html=1;rounded=0;exitX=0.5;exitY=1;exitDx=0;exitDy=0;entryX=0.5;entryY=0;entryDx=0;entryDy=0;" edge="1" parent="1" source="DNOfdD8zVIgNk7MukMJV-47" target="DNOfdD8zVIgNk7MukMJV-53">
          <mxGeometry width="50" height="50" relative="1" as="geometry">
            <mxPoint x="380" y="1030" as="sourcePoint" />
            <mxPoint x="430" y="980" as="targetPoint" />
          </mxGeometry>
        </mxCell>
        <mxCell id="DNOfdD8zVIgNk7MukMJV-102" value="" style="endArrow=classic;html=1;rounded=0;exitX=0.5;exitY=1;exitDx=0;exitDy=0;entryX=0.45;entryY=0.05;entryDx=0;entryDy=0;entryPerimeter=0;" edge="1" parent="1" source="DNOfdD8zVIgNk7MukMJV-53" target="DNOfdD8zVIgNk7MukMJV-39">
          <mxGeometry width="50" height="50" relative="1" as="geometry">
            <mxPoint x="380" y="1030" as="sourcePoint" />
            <mxPoint x="430" y="980" as="targetPoint" />
          </mxGeometry>
        </mxCell>
        <mxCell id="DNOfdD8zVIgNk7MukMJV-103" value="" style="endArrow=classic;html=1;rounded=0;exitX=0.5;exitY=1;exitDx=0;exitDy=0;" edge="1" parent="1" source="DNOfdD8zVIgNk7MukMJV-39" target="DNOfdD8zVIgNk7MukMJV-52">
          <mxGeometry width="50" height="50" relative="1" as="geometry">
            <mxPoint x="380" y="1270" as="sourcePoint" />
            <mxPoint x="430" y="1220" as="targetPoint" />
          </mxGeometry>
        </mxCell>
        <mxCell id="DNOfdD8zVIgNk7MukMJV-104" value="" style="endArrow=classic;html=1;rounded=0;exitX=0.5;exitY=1;exitDx=0;exitDy=0;" edge="1" parent="1" source="DNOfdD8zVIgNk7MukMJV-58" target="DNOfdD8zVIgNk7MukMJV-59">
          <mxGeometry width="50" height="50" relative="1" as="geometry">
            <mxPoint x="380" y="1630" as="sourcePoint" />
            <mxPoint x="430" y="1580" as="targetPoint" />
          </mxGeometry>
        </mxCell>
        <mxCell id="DNOfdD8zVIgNk7MukMJV-107" value="stop" style="ellipse;whiteSpace=wrap;html=1;" vertex="1" parent="1">
          <mxGeometry x="590" y="1840" width="120" height="80" as="geometry" />
        </mxCell>
        <mxCell id="DNOfdD8zVIgNk7MukMJV-108" value="" style="endArrow=classic;html=1;rounded=0;exitX=0.5;exitY=1;exitDx=0;exitDy=0;entryX=0.5;entryY=0;entryDx=0;entryDy=0;" edge="1" parent="1" source="DNOfdD8zVIgNk7MukMJV-59" target="DNOfdD8zVIgNk7MukMJV-107">
          <mxGeometry width="50" height="50" relative="1" as="geometry">
            <mxPoint x="380" y="1870" as="sourcePoint" />
            <mxPoint x="430" y="1820" as="targetPoint" />
          </mxGeometry>
        </mxCell>
      </root>
    </mxGraphModel>
  </diagram>
</mxfile>
